<?xml version="1.0" encoding="UTF-8"?>
<svg width="1224px" height="1150px" viewBox="0 0 1224 1150" version="1.1" xmlns="http://www.w3.org/2000/svg" xmlns:xlink="http://www.w3.org/1999/xlink">
    <!-- Generator: Sketch 47.1 (45422) - http://www.bohemiancoding.com/sketch -->
    <title>Group 8</title>
    <desc>Created with Sketch.</desc>
    <defs></defs>
    <g id="Page-1" stroke="none" stroke-width="1" fill="none" fill-rule="evenodd">
        <g id="Group-8">
            <path d="M287.924,255.42 L218.09,255.42 C217.864,257.454 217.186,260.392 215.604,262.426 C205.66,277.568 180.8,282.088 149.612,282.088 C121.136,282.088 92.886,275.082 82.038,257.68 C79.326,253.16 77.97,247.962 77.97,241.86 C77.97,235.532 79.1,230.108 81.812,225.588 C91.304,209.316 116.616,200.954 149.612,200.954 C184.642,200.954 205.434,210.672 213.118,220.39 C215.378,222.876 216.96,226.04 217.638,228.3 L287.472,228.3 C287.02,224.006 285.89,215.644 282.048,207.282 C268.488,179.71 234.588,150.104 150.064,150.104 C83.62,150.104 43.166,168.636 22.826,196.434 C13.786,208.864 9.266,224.458 9.266,241.408 C9.266,259.488 14.238,275.534 23.504,288.642 C42.714,315.31 82.942,332.712 149.16,332.712 C225.322,332.712 265.55,313.276 281.822,278.472 C284.986,271.918 287.02,261.07 287.924,255.42 Z M562.514,267.172 C562.514,278.472 559.124,288.416 553.248,296.778 C536.75,320.282 499.234,332.486 447.706,332.486 C392.788,332.486 357.306,318.926 341.712,296.552 C335.61,287.964 332.672,278.02 332.672,267.172 C332.672,256.55 335.61,246.832 341.938,238.244 C357.532,215.644 393.24,201.18 447.706,201.18 C500.816,201.18 536.524,215.418 552.57,237.114 C559.124,245.928 562.514,255.872 562.514,267.172 Z M499.008,267.172 C499.008,263.556 498.104,260.392 495.392,257.002 C488.386,247.51 471.662,241.634 447.932,241.634 C423.524,241.634 407.704,247.284 399.794,256.55 C397.308,259.488 396.404,263.33 396.404,267.172 C396.404,270.788 397.082,274.404 399.342,277.342 C406.122,287.06 424.202,292.71 447.932,292.71 C472.34,292.71 489.064,287.512 495.844,277.794 C497.878,274.856 499.008,271.014 499.008,267.172 Z M806.82,330 L806.82,289.772 L707.154,289.772 L800.944,243.894 L800.944,206.83 L614.72,206.83 L614.72,247.058 L699.244,247.058 L610.652,291.806 L610.652,330 L806.82,330 Z M1078.472,205.7 L1012.48,205.7 L963.89,283.444 L912.814,205.7 L845.918,205.7 L930.216,331.356 L902.87,372.036 L972.704,372.036 L1078.472,205.7 Z M287.924,527.42 L218.09,527.42 C217.864,529.454 217.186,532.392 215.604,534.426 C205.66,549.568 180.8,554.088 149.612,554.088 C121.136,554.088 92.886,547.082 82.038,529.68 C79.326,525.16 77.97,519.962 77.97,513.86 C77.97,507.532 79.1,502.108 81.812,497.588 C91.304,481.316 116.616,472.954 149.612,472.954 C184.642,472.954 205.434,482.672 213.118,492.39 C215.378,494.876 216.96,498.04 217.638,500.3 L287.472,500.3 C287.02,496.006 285.89,487.644 282.048,479.282 C268.488,451.71 234.588,422.104 150.064,422.104 C83.62,422.104 43.166,440.636 22.826,468.434 C13.786,480.864 9.266,496.458 9.266,513.408 C9.266,531.488 14.238,547.534 23.504,560.642 C42.714,587.31 82.942,604.712 149.16,604.712 C225.322,604.712 265.55,585.276 281.822,550.472 C284.986,543.918 287.02,533.07 287.924,527.42 Z M548.954,602 C545.79,601.774 544.886,597.706 544.886,536.686 C544.886,496.684 520.93,473.406 475.956,473.406 C442.056,473.406 418.778,481.316 405.444,502.108 L405.444,422.556 L344.424,422.556 L344.424,602 L407.704,602 L407.704,549.568 C407.704,534.426 422.846,520.866 445.898,520.866 C468.95,520.866 481.38,529.228 481.38,547.986 C481.38,593.186 482.058,598.61 484.092,602 L548.954,602 Z M678.452,465.27 L678.452,423.686 L614.268,423.686 L614.268,465.27 L678.452,465.27 Z M683.198,602 C678.452,599.514 678.226,595.446 678.226,575.332 L678.226,477.7 L614.72,477.7 L614.72,575.784 C614.72,593.638 615.85,601.548 619.24,602 L683.198,602 Z M818.798,602 C814.956,601.096 813.826,593.412 813.826,587.31 L813.826,444.252 C813.826,436.342 813.374,429.336 812.47,424.59 L749.19,424.59 C749.868,427.076 750.546,432.952 750.546,444.93 L750.546,583.468 C750.546,594.768 752.128,601.548 754.614,602 L818.798,602 Z M954.624,602 C950.782,601.096 949.652,593.412 949.652,587.31 L949.652,444.252 C949.652,436.342 949.2,429.336 948.296,424.59 L885.016,424.59 C885.694,427.076 886.372,432.952 886.372,444.93 L886.372,583.468 C886.372,594.768 887.954,601.548 890.44,602 L954.624,602 Z M305.552,697.494 L237.3,697.494 L154.358,824.506 L74.128,697.494 L0,697.494 L114.808,874 L191.648,874 L305.552,697.494 Z M412.676,737.27 L412.676,695.686 L348.492,695.686 L348.492,737.27 L412.676,737.27 Z M417.422,874 C412.676,871.514 412.45,867.446 412.45,847.332 L412.45,749.7 L348.944,749.7 L348.944,847.784 C348.944,865.638 350.074,873.548 353.464,874 L417.422,874 Z M615.398,745.632 C656.078,745.632 682.52,757.384 694.95,777.498 C700.826,786.764 703.99,798.064 703.99,811.172 C703.99,823.602 700.6,834.676 694.046,843.49 C679.13,864.282 648.846,875.356 612.008,875.356 C590.312,875.356 557.768,870.61 545.564,859.762 L545.564,874 L482.962,874 L482.962,694.556 L546.242,694.556 L546.242,764.39 C556.186,754.22 580.82,745.632 615.398,745.632 Z M591.894,785.182 C569.972,785.182 554.604,790.38 548.05,799.42 C545.338,802.81 544.434,806.652 544.434,810.946 C544.434,815.24 545.338,819.308 548.502,822.698 C555.282,831.06 570.876,836.032 592.12,836.032 C613.816,836.032 628.958,831.512 635.512,822.924 C638.224,819.534 639.806,815.466 639.806,810.72 C639.806,805.974 638.224,801.906 635.286,798.29 C628.054,789.702 611.782,785.182 591.894,785.182 Z M974.512,832.868 C973.382,836.258 971.574,839.422 968.41,843.264 C956.658,859.536 923.662,876.712 863.998,876.712 C818.798,876.712 783.09,868.124 764.332,847.784 C754.614,836.936 750.32,825.41 750.32,811.172 C750.32,797.838 755.518,785.86 764.106,776.594 C783.542,755.35 821.284,744.954 864.45,744.954 C925.922,744.954 966.828,767.102 974.06,805.07 C974.964,808.008 975.868,821.568 975.868,824.732 L813.148,824.732 C814.278,828.574 817.442,831.512 822.414,834.902 C830.776,840.326 845.692,843.716 865.354,843.716 C879.592,843.716 893.378,841.456 900.384,837.84 C903.096,836.936 906.26,834.676 908.068,832.868 L974.512,832.868 Z M912.136,798.064 C912.136,794.9 909.876,790.832 905.356,787.894 C898.124,783.148 883.434,779.08 863.546,779.08 C843.206,779.08 826.482,783.374 819.702,789.25 C816.312,791.962 814.278,794.9 813.826,798.064 L912.136,798.064 Z M1223.112,834.45 C1223.112,809.364 1202.32,798.968 1156.894,796.482 C1142.656,795.578 1126.158,794.448 1114.632,793.77 C1083.896,792.188 1079.602,791.736 1079.602,786.99 C1079.602,782.244 1083.444,780.436 1115.31,780.436 C1135.65,780.436 1146.272,782.018 1150.566,785.408 C1152.6,786.99 1153.278,788.346 1153.504,790.154 L1215.654,790.154 C1215.202,787.216 1214.75,784.278 1213.168,780.21 C1202.772,754.446 1172.262,744.954 1111.694,744.954 C1049.996,744.954 1017.226,760.096 1017.226,787.216 C1017.226,813.658 1047.736,822.02 1099.264,825.862 C1109.208,826.54 1121.412,827.444 1128.644,827.896 C1157.12,829.478 1161.866,830.382 1161.866,834.902 C1161.866,839.874 1158.928,841.908 1123.446,841.908 C1096.1,841.908 1085.478,840.1 1081.184,835.806 C1079.15,833.772 1078.698,832.642 1078.472,830.156 L1014.288,830.156 C1014.514,833.094 1014.966,834.45 1016.096,838.066 C1025.814,865.412 1052.256,876.712 1124.124,876.712 C1194.41,876.712 1223.112,863.152 1223.112,834.45 Z" id="Cozy-Chill-Vibes-Clu-Copy" fill="#244B7E" opacity="0.725147192" style="mix-blend-mode: multiply;"></path>
            <path d="M287.924,1071.42 L218.09,1071.42 C217.864,1073.454 217.186,1076.392 215.604,1078.426 C205.66,1093.568 180.8,1098.088 149.612,1098.088 C121.136,1098.088 92.886,1091.082 82.038,1073.68 C79.326,1069.16 77.97,1063.962 77.97,1057.86 C77.97,1051.532 79.1,1046.108 81.812,1041.588 C91.304,1025.316 116.616,1016.954 149.612,1016.954 C184.642,1016.954 205.434,1026.672 213.118,1036.39 C215.378,1038.876 216.96,1042.04 217.638,1044.3 L287.472,1044.3 C287.02,1040.006 285.89,1031.644 282.048,1023.282 C268.488,995.71 234.588,966.104 150.064,966.104 C83.62,966.104 43.166,984.636 22.826,1012.434 C13.786,1024.864 9.266,1040.458 9.266,1057.408 C9.266,1075.488 14.238,1091.534 23.504,1104.642 C42.714,1131.31 82.942,1148.712 149.16,1148.712 C225.322,1148.712 265.55,1129.276 281.822,1094.472 C284.986,1087.918 287.02,1077.07 287.924,1071.42 Z M414.484,1146 C410.642,1145.096 409.512,1137.412 409.512,1131.31 L409.512,988.252 C409.512,980.342 409.06,973.336 408.156,968.59 L344.876,968.59 C345.554,971.076 346.232,976.952 346.232,988.93 L346.232,1127.468 C346.232,1138.768 347.814,1145.548 350.3,1146 L414.484,1146 Z M679.356,1146 C679.356,1145.774 678.678,1136.282 678.678,1125.208 L678.678,1021.7 L615.172,1021.7 L615.172,1077.522 C615.172,1093.568 599.352,1104.416 575.848,1104.416 C559.35,1104.416 541.722,1099.444 541.722,1077.974 C541.722,1040.458 541.044,1021.7 539.01,1021.7 L474.826,1021.7 C477.086,1024.412 477.99,1024.186 477.99,1095.828 C477.99,1140.802 509.178,1149.39 546.468,1149.39 C577.204,1149.39 603.194,1143.74 617.206,1123.852 L618.788,1146 L679.356,1146 Z M880.496,1018.632 C921.176,1018.632 947.618,1030.384 960.048,1050.498 C965.924,1059.764 969.088,1071.064 969.088,1084.172 C969.088,1096.602 965.698,1107.676 959.144,1116.49 C944.228,1137.282 913.944,1148.356 877.106,1148.356 C855.41,1148.356 822.866,1143.61 810.662,1132.762 L810.662,1147 L748.06,1147 L748.06,967.556 L811.34,967.556 L811.34,1037.39 C821.284,1027.22 845.918,1018.632 880.496,1018.632 Z M856.992,1057.182 C835.07,1057.182 819.702,1062.38 813.148,1071.42 C810.436,1074.81 809.532,1078.652 809.532,1082.946 C809.532,1087.24 810.436,1091.308 813.6,1094.698 C820.38,1103.06 835.974,1108.032 857.218,1108.032 C878.914,1108.032 894.056,1103.512 900.61,1094.924 C903.322,1091.534 904.904,1087.466 904.904,1082.72 C904.904,1077.974 903.322,1073.906 900.384,1070.29 C893.152,1061.702 876.88,1057.182 856.992,1057.182 Z" id="Cozy-Chill-Vibes-Clu-Copy" fill="#C7D0DC" opacity="0.725147192" style="mix-blend-mode: multiply;"></path>
            <path d="M39.912,27.584 L39.912,1.264 L23.336,1.264 L23.336,25.288 C23.336,29.208 20.872,33.072 14.656,33.072 C11.856,33.072 4.52,33.016 3.736,32.904 L3.736,45.112 C4.632,45.224 11.072,45.616 17.232,45.616 C31.96,45.616 39.912,37.776 39.912,27.584 Z M110.248,29.432 C110.248,32.232 109.408,34.696 107.952,36.768 C103.864,42.592 94.568,45.616 81.8,45.616 C68.192,45.616 59.4,42.256 55.536,36.712 C54.024,34.584 53.296,32.12 53.296,29.432 C53.296,26.8 54.024,24.392 55.592,22.264 C59.456,16.664 68.304,13.08 81.8,13.08 C94.96,13.08 103.808,16.608 107.784,21.984 C109.408,24.168 110.248,26.632 110.248,29.432 Z M94.512,29.432 C94.512,28.536 94.288,27.752 93.616,26.912 C91.88,24.56 87.736,23.104 81.856,23.104 C75.808,23.104 71.888,24.504 69.928,26.8 C69.312,27.528 69.088,28.48 69.088,29.432 C69.088,30.328 69.256,31.224 69.816,31.952 C71.496,34.36 75.976,35.76 81.856,35.76 C87.904,35.76 92.048,34.472 93.728,32.064 C94.232,31.336 94.512,30.384 94.512,29.432 Z M140.376,11.12 L140.376,0.816 L124.472,0.816 L124.472,11.12 L140.376,11.12 Z M141.552,45 C140.376,44.384 140.32,43.376 140.32,38.392 L140.32,14.2 L124.584,14.2 L124.584,38.504 C124.584,42.928 124.864,44.888 125.704,45 L141.552,45 Z M208.08,45 C207.744,43.992 207.464,44.44 207.464,29.096 C207.464,20.36 202.76,13.192 190.272,13.192 C182.824,13.192 175.768,15.096 172.912,20.528 L172.912,14.2 L157.792,14.2 L157.792,45 L173.472,45 L173.472,31.616 C173.472,28.368 177.392,24.896 182.936,24.896 C189.04,24.896 191.728,27.472 191.728,31.56 C191.728,43.936 192.12,45 192.456,45 L208.08,45 Z M290.512,25.12 L290.512,14.48 L277.072,14.48 L277.072,6.36 L261.84,6.808 C261.84,6.808 261.896,11.904 261.504,14.48 L253.552,14.48 L253.552,25.12 L261.504,25.12 L261.504,34.416 C261.504,43.376 268.56,45.672 276.232,45.672 C281.888,45.672 288.104,45.056 290.4,44.104 L290.4,34.696 C288.944,35.088 284.8,35.312 282.896,35.312 C278.752,35.312 277.24,34.416 277.24,31.896 L277.24,25.12 L290.512,25.12 Z M355.976,45 C355.192,44.944 354.968,43.936 354.968,28.816 C354.968,18.904 349.032,13.136 337.888,13.136 C329.488,13.136 323.72,15.096 320.416,20.248 L320.416,0.536 L305.296,0.536 L305.296,45 L320.976,45 L320.976,32.008 C320.976,28.256 324.728,24.896 330.44,24.896 C336.152,24.896 339.232,26.968 339.232,31.616 C339.232,42.816 339.4,44.16 339.904,45 L355.976,45 Z M424.408,34.808 C424.128,35.648 423.68,36.432 422.896,37.384 C419.984,41.416 411.808,45.672 397.024,45.672 C385.824,45.672 376.976,43.544 372.328,38.504 C369.92,35.816 368.856,32.96 368.856,29.432 C368.856,26.128 370.144,23.16 372.272,20.864 C377.088,15.6 386.44,13.024 397.136,13.024 C412.368,13.024 422.504,18.512 424.296,27.92 C424.52,28.648 424.744,32.008 424.744,32.792 L384.424,32.792 C384.704,33.744 385.488,34.472 386.72,35.312 C388.792,36.656 392.488,37.496 397.36,37.496 C400.888,37.496 404.304,36.936 406.04,36.04 C406.712,35.816 407.496,35.256 407.944,34.808 L424.408,34.808 Z M408.952,26.184 C408.952,25.4 408.392,24.392 407.272,23.664 C405.48,22.488 401.84,21.48 396.912,21.48 C391.872,21.48 387.728,22.544 386.048,24 C385.208,24.672 384.704,25.4 384.592,26.184 L408.952,26.184 Z" id="Join-the-Copy" fill="#244B7E" opacity="0.725147192" style="mix-blend-mode: multiply;"></path>
            <polygon id="Line-Copy" fill="#5D799E" fill-rule="nonzero" points="1 88 437.075287 88 437.075287 77 1 77"></polygon>
        </g>
    </g>
</svg>